<svg xmlns="http://www.w3.org/2000/svg" width="27" height="26.91" viewBox="0 0 27 26.91">
  <g id="logout" transform="translate(0 -0.85)">
    <g id="Group_362" data-name="Group 362" transform="translate(0 0.85)">
      <g id="Group_361" data-name="Group 361">
        <path id="Path_2222" data-name="Path 2222" d="M13.455,25.518H3.364A1.122,1.122,0,0,1,2.243,24.4V4.214A1.122,1.122,0,0,1,3.364,3.093H13.455a1.121,1.121,0,0,0,0-2.243H3.364A3.368,3.368,0,0,0,0,4.214V24.4A3.368,3.368,0,0,0,3.364,27.76H13.455a1.121,1.121,0,1,0,0-2.242Z" transform="translate(0 -0.85)"/>
      </g>
    </g>
    <g id="Group_364" data-name="Group 364" transform="translate(8.97 6.456)">
      <g id="Group_363" data-name="Group 363">
        <path id="Path_2223" data-name="Path 2223" d="M187.8,114.215l-6.817-6.728a1.121,1.121,0,0,0-1.574,1.6l4.872,4.808H171.221a1.121,1.121,0,0,0,0,2.243h13.055l-4.872,4.808a1.121,1.121,0,1,0,1.574,1.6l6.817-6.728a1.121,1.121,0,0,0,0-1.6Z" transform="translate(-170.1 -107.165)"/>
      </g>
    </g>
  </g>
</svg>
